<svg width="12" height="12" viewBox="0 0 12 12" fill="none" xmlns="http://www.w3.org/2000/svg">
<path d="M2.64781 2.64732C2.74181 2.5548 2.86842 2.50294 3.00031 2.50294C3.13221 2.50294 3.25881 2.5548 3.35281 2.64732L6.00031 5.29482L8.64781 2.64732C8.6915 2.59095 8.74669 2.54452 8.80972 2.51112C8.87274 2.47773 8.94215 2.45813 9.01334 2.45364C9.08452 2.44914 9.15584 2.45985 9.22257 2.48506C9.28929 2.51026 9.34988 2.54938 9.40032 2.59982C9.45075 2.65025 9.48987 2.71084 9.51508 2.77757C9.54028 2.84429 9.55099 2.91561 9.5465 2.9868C9.54201 3.05798 9.52241 3.12739 9.48901 3.19042C9.45562 3.25344 9.40919 3.30863 9.35281 3.35232L6.70531 5.99982L9.35281 8.64732C9.40919 8.69101 9.45562 8.74621 9.48901 8.80923C9.52241 8.87225 9.54201 8.94167 9.5465 9.01285C9.55099 9.08403 9.54028 9.15536 9.51508 9.22208C9.48987 9.2888 9.45075 9.3494 9.40032 9.39983C9.34988 9.45026 9.28929 9.48938 9.22257 9.51459C9.15584 9.53979 9.08452 9.5505 9.01334 9.54601C8.94215 9.54152 8.87274 9.52192 8.80972 9.48853C8.74669 9.45513 8.6915 9.4087 8.64781 9.35232L6.00031 6.70482L3.35281 9.35232C3.30912 9.4087 3.25393 9.45513 3.1909 9.48853C3.12788 9.52192 3.05847 9.54152 2.98729 9.54601C2.9161 9.5505 2.84478 9.53979 2.77805 9.51459C2.71133 9.48938 2.65074 9.45026 2.6003 9.39983C2.54987 9.3494 2.51075 9.2888 2.48555 9.22208C2.46034 9.15536 2.44963 9.08403 2.45412 9.01285C2.45862 8.94167 2.47821 8.87225 2.51161 8.80923C2.54501 8.74621 2.59143 8.69101 2.64781 8.64732L5.29531 5.99982L2.64781 3.35232C2.55529 3.25832 2.50343 3.13172 2.50343 2.99982C2.50343 2.86793 2.55529 2.74132 2.64781 2.64732Z" fill="white"/>
</svg>
