<svg width="12" height="12" viewBox="0 0 12 12" fill="none" xmlns="http://www.w3.org/2000/svg">
<path d="M10.1651 2.1139C9.38836 1.75047 8.55779 1.48634 7.68945 1.33594C7.58281 1.52874 7.45822 1.78807 7.37232 1.99436C6.44925 1.85555 5.53467 1.85555 4.62858 1.99436C4.5427 1.78807 4.41528 1.52874 4.30768 1.33594C3.4384 1.48634 2.60688 1.75144 1.8301 2.11583C0.263321 4.48343 -0.161406 6.79223 0.0509583 9.06824C1.09013 9.84426 2.0972 10.3157 3.08729 10.6242C3.33174 10.2877 3.54977 9.93006 3.73759 9.55314C3.37988 9.41721 3.03726 9.24948 2.71354 9.05475C2.79942 8.99112 2.88343 8.9246 2.96459 8.85615C4.9391 9.77968 7.08445 9.77968 9.03537 8.85615C9.11748 8.9246 9.20148 8.99112 9.28642 9.05475C8.96174 9.25043 8.61819 9.41817 8.26048 9.55411C8.4483 9.93006 8.66538 10.2887 8.91078 10.6251C9.90182 10.3166 10.9098 9.84523 11.949 9.06824C12.1982 6.42976 11.5233 4.14217 10.1651 2.1139ZM4.00659 7.66851C3.41386 7.66851 2.92778 7.11516 2.92778 6.44132C2.92778 5.76748 3.40348 5.21318 4.00659 5.21318C4.60971 5.21318 5.09578 5.76651 5.0854 6.44132C5.08634 7.11516 4.60971 7.66851 4.00659 7.66851ZM7.99337 7.66851C7.40064 7.66851 6.91456 7.11516 6.91456 6.44132C6.91456 5.76748 7.39025 5.21318 7.99337 5.21318C8.59648 5.21318 9.08256 5.76651 9.07218 6.44132C9.07218 7.11516 8.59648 7.66851 7.99337 7.66851Z" fill="white"/>
</svg>
