<svg width="16" height="12" viewBox="0 0 16 12" fill="none" xmlns="http://www.w3.org/2000/svg">
<g clip-path="url(#clip0_609_9180)">
<path d="M15.3157 3.86932V10.6364C15.3157 11.0114 15.1822 11.3324 14.9151 11.5994C14.6481 11.8665 14.3271 12 13.9521 12H1.40661C1.03161 12 0.710582 11.8665 0.443537 11.5994C0.176491 11.3324 0.0429688 11.0114 0.0429688 10.6364V3.86932C0.292969 4.14773 0.579901 4.39489 0.903764 4.6108C2.96058 6.00852 4.37251 6.98864 5.13956 7.55114C5.46342 7.78977 5.72621 7.97585 5.92791 8.10938C6.12962 8.2429 6.39808 8.37926 6.73331 8.51847C7.06854 8.65767 7.38104 8.72727 7.67081 8.72727H7.68786C7.97763 8.72727 8.29013 8.65767 8.62536 8.51847C8.96058 8.37926 9.22905 8.2429 9.43075 8.10938C9.63246 7.97585 9.89524 7.78977 10.2191 7.55114C11.185 6.85227 12.5998 5.87216 14.4634 4.6108C14.7873 4.3892 15.0714 4.14205 15.3157 3.86932ZM15.3157 1.36364C15.3157 1.8125 15.1765 2.24148 14.8981 2.65057C14.6197 3.05966 14.2731 3.40909 13.8583 3.69886C11.7219 5.18182 10.3924 6.10511 9.86967 6.46875C9.81286 6.50852 9.69212 6.59517 9.50746 6.72869C9.3228 6.86222 9.16939 6.97017 9.04723 7.05256C8.92507 7.13494 8.77734 7.22727 8.60405 7.32955C8.43075 7.43182 8.2674 7.50852 8.11399 7.55966C7.96058 7.6108 7.81854 7.63636 7.68786 7.63636H7.67081C7.54013 7.63636 7.39808 7.6108 7.24467 7.55966C7.09126 7.50852 6.92791 7.43182 6.75462 7.32955C6.58132 7.22727 6.43359 7.13494 6.31143 7.05256C6.18928 6.97017 6.03587 6.86222 5.85121 6.72869C5.66655 6.59517 5.54581 6.50852 5.48899 6.46875C4.97195 6.10511 4.22763 5.58665 3.25604 4.91335C2.28445 4.24006 1.70206 3.83523 1.50888 3.69886C1.15661 3.46023 0.824219 3.1321 0.511719 2.71449C0.199219 2.29688 0.0429688 1.90909 0.0429688 1.55114C0.0429688 1.10795 0.160866 0.738636 0.396662 0.443182C0.632457 0.147727 0.969105 0 1.40661 0H13.9521C14.3214 0 14.641 0.133523 14.9109 0.400568C15.1808 0.667614 15.3157 0.988636 15.3157 1.36364Z" fill="white"/>
</g>
<defs>
<clipPath id="clip0_609_9180">
<rect width="15.36" height="12" fill="white"/>
</clipPath>
</defs>
</svg>
