<svg width="12" height="12" viewBox="0 0 12 12" fill="none" xmlns="http://www.w3.org/2000/svg">
<g clip-path="url(#clip0_609_9168)">
<path d="M4.5505 11.8455V7.85547H3.3135V6.02197H4.5505V5.23197C4.5505 3.18947 5.4745 2.24297 7.4795 2.24297C7.68 2.24297 7.957 2.26397 8.2135 2.29447C8.40556 2.3147 8.59612 2.34726 8.784 2.39197V4.05447C8.67542 4.04452 8.56652 4.03852 8.4575 4.03647C8.33536 4.03331 8.21318 4.03181 8.091 4.03197C7.7375 4.03197 7.4615 4.07997 7.2535 4.18647C7.11388 4.25693 6.9964 4.36455 6.914 4.49747C6.785 4.70747 6.727 4.99497 6.727 5.37347V6.02197H8.6865L8.4935 7.07347L8.35 7.85547H6.727V11.978C9.698 11.619 12 9.08947 12 6.02197C12 2.70847 9.3135 0.0219727 6 0.0219727C2.6865 0.0219727 0 2.70847 0 6.02197C0 8.83597 1.937 11.197 4.5505 11.8455Z" fill="white"/>
</g>
<defs>
<clipPath id="clip0_609_9168">
<rect width="12" height="12" fill="white"/>
</clipPath>
</defs>
</svg>
