<svg width="12" height="12" viewBox="0 0 12 12" fill="none" xmlns="http://www.w3.org/2000/svg">
<g clip-path="url(#clip0_613_9191)">
<path d="M3.51517 0.0421268C2.87667 0.0721268 2.44067 0.174127 2.06017 0.323627C1.66003 0.475203 1.29765 0.712011 0.998169 1.01763C0.693816 1.31793 0.45838 1.68081 0.308169 2.08113C0.160669 2.46313 0.0601692 2.90013 0.0321692 3.53813C0.00416921 4.17613 -0.00233079 4.38213 0.000669208 6.01163C0.00366921 7.64113 0.0111692 7.84513 0.0421692 8.48513C0.0726692 9.12363 0.174169 9.55963 0.323669 9.94063C0.477669 10.3351 0.683669 10.6691 1.01767 11.0021C1.31827 11.3066 1.6815 11.542 2.08217 11.6921C2.46367 11.8396 2.90017 11.9401 3.53867 11.9681C4.17767 11.9961 4.38317 12.0026 6.01217 11.9996C7.64117 11.9966 7.84617 11.9891 8.48567 11.9586C9.12567 11.9286 9.55917 11.8261 9.94067 11.6771C10.3406 11.5255 10.7028 11.2887 11.0022 10.9831C11.3066 10.6825 11.5421 10.3193 11.6922 9.91863C11.8397 9.53713 11.9402 9.10063 11.9677 8.46263C11.9957 7.82263 12.0027 7.61763 11.9992 5.98863C11.9962 4.35963 11.9892 4.15513 11.9587 3.51513C11.9287 2.87513 11.8267 2.44113 11.6767 2.05963C11.5252 1.65971 11.2885 1.29751 10.9832 0.998127C10.6827 0.693713 10.3197 0.458274 9.91917 0.308127C9.53717 0.161127 9.10117 0.0601268 8.46217 0.0331268C7.82367 0.00462684 7.61817 -0.00287316 5.98867 0.000126841C4.35917 0.00312684 4.15517 0.0106268 3.51517 0.0421268ZM3.58517 10.8886C3.00017 10.8636 2.68267 10.7661 2.47117 10.6846C2.21015 10.5893 1.97397 10.4363 1.78017 10.2371C1.58034 10.0442 1.42654 9.80867 1.33017 9.54813C1.24767 9.33663 1.14867 9.01913 1.12167 8.43413C1.09167 7.80213 1.08567 7.61213 1.08167 6.01013C1.07867 4.40813 1.08467 4.21863 1.11217 3.58613C1.13717 3.00163 1.23517 2.68363 1.31617 2.47213C1.42417 2.19163 1.55467 1.99213 1.76367 1.78113C1.95678 1.58124 2.19245 1.42743 2.45317 1.33113C2.66467 1.24863 2.98167 1.15063 3.56667 1.12263C4.19917 1.09263 4.38867 1.08663 5.99067 1.08263C7.59217 1.07963 7.78217 1.08563 8.41567 1.11363C8.99967 1.13863 9.31767 1.23563 9.52917 1.31763C9.80917 1.42563 10.0092 1.55513 10.2202 1.76513C10.4312 1.97513 10.5607 2.17363 10.6702 2.45413C10.7527 2.66513 10.8512 2.98213 10.8787 3.56763C10.9087 4.20013 10.9157 4.39013 10.9187 5.99163C10.9212 7.59313 10.9157 7.78313 10.8882 8.41563C10.8627 9.00063 10.7657 9.31813 10.6842 9.53063C10.5762 9.81063 10.4457 10.0106 10.2362 10.2206C10.0432 10.4205 9.80771 10.5743 9.54717 10.6706C9.33617 10.7531 9.01817 10.8516 8.43417 10.8796C7.80117 10.9096 7.61167 10.9156 6.00917 10.9191C4.40667 10.9226 4.21817 10.9156 3.58517 10.8886ZM8.47667 2.79313C8.47687 2.93555 8.5193 3.07472 8.5986 3.19302C8.6779 3.31132 8.79051 3.40345 8.92218 3.45775C9.05384 3.51205 9.19866 3.52607 9.3383 3.49806C9.47794 3.47004 9.60614 3.40124 9.70667 3.30036C9.8072 3.19947 9.87556 3.07104 9.90309 2.9313C9.93062 2.79157 9.91609 2.6468 9.86133 2.51532C9.80658 2.38385 9.71406 2.27156 9.59548 2.19267C9.4769 2.11378 9.33759 2.07183 9.19517 2.07213C9.0043 2.07252 8.8214 2.14869 8.68667 2.28389C8.55194 2.41909 8.4764 2.60226 8.47667 2.79313ZM2.91967 6.00613C2.92126 6.82319 3.24736 7.60616 3.82624 8.18279C4.40512 8.75942 5.18935 9.08247 6.00642 9.08088C6.82348 9.07929 7.60645 8.75318 8.18308 8.1743C8.75971 7.59543 9.08276 6.81119 9.08117 5.99413C9.06939 5.1838 8.73881 4.41074 8.16106 3.84244C7.58331 3.27413 6.80491 2.95634 5.99449 2.95792C5.18408 2.9595 4.40692 3.28032 3.83139 3.85087C3.25586 4.42142 2.92829 5.19576 2.91967 6.00613ZM4.00017 6.00413C3.99938 5.60857 4.1159 5.22165 4.33501 4.89232C4.55411 4.56298 4.86596 4.30601 5.23111 4.15391C5.59625 4.0018 5.99831 3.96139 6.38642 4.03778C6.77454 4.11418 7.13128 4.30395 7.41155 4.58309C7.69181 4.86224 7.883 5.21822 7.96095 5.60603C8.0389 5.99383 8.0001 6.39604 7.84945 6.7618C7.69881 7.12755 7.44309 7.44042 7.11463 7.66084C6.78617 7.88126 6.39973 7.99933 6.00417 8.00013C5.74153 8.00065 5.48135 7.94944 5.2385 7.84942C4.99564 7.74939 4.77487 7.60252 4.58878 7.41717C4.40269 7.23182 4.25493 7.01164 4.15394 6.76919C4.05295 6.52674 4.00069 6.26677 4.00017 6.00413Z" fill="white"/>
</g>
<defs>
<clipPath id="clip0_613_9191">
<rect width="12" height="12" fill="white"/>
</clipPath>
</defs>
</svg>
