<svg width="12" height="12" viewBox="0 0 12 12" fill="none" xmlns="http://www.w3.org/2000/svg">
<path d="M10.2235 10.226H8.4465V7.4415C8.4465 6.7775 8.433 5.923 7.5205 5.923C6.594 5.923 6.4525 6.6455 6.4525 7.3925V10.226H4.6755V4.5H6.3825V5.2805H6.4055C6.644 4.8305 7.224 4.3555 8.0905 4.3555C9.891 4.3555 10.224 5.5405 10.224 7.083L10.2235 10.226ZM2.6685 3.7165C2.5329 3.7167 2.3986 3.69012 2.2733 3.63829C2.14799 3.58646 2.03416 3.5104 1.93832 3.41447C1.84249 3.31854 1.76654 3.20463 1.71483 3.07928C1.66312 2.95393 1.63667 2.8196 1.637 2.684C1.6371 2.47989 1.69772 2.28039 1.8112 2.11074C1.92468 1.94108 2.08592 1.80888 2.27453 1.73087C2.46314 1.65285 2.67065 1.63251 2.87082 1.67243C3.07099 1.71234 3.25483 1.81072 3.39909 1.95512C3.54335 2.09952 3.64154 2.28345 3.68127 2.48366C3.72099 2.68387 3.70045 2.89136 3.62225 3.07989C3.54405 3.26843 3.4117 3.42954 3.24193 3.54285C3.07217 3.65617 2.87261 3.7166 2.6685 3.7165ZM3.5595 10.226H1.7775V4.5H3.5595V10.226ZM11.1125 0H0.8855C0.396 0 0 0.387 0 0.8645V11.1355C0 11.6135 0.396 12 0.8855 12H11.111C11.6 12 12 11.6135 12 11.1355V0.8645C12 0.387 11.6 0 11.111 0H11.1125Z" fill="white"/>
</svg>
