<svg width="12" height="12" viewBox="0 0 12 12" fill="none" xmlns="http://www.w3.org/2000/svg">
<path d="M3.5 3C3.36739 3 3.24021 3.05268 3.14645 3.14645C3.05268 3.24021 3 3.36739 3 3.5C3 3.63261 3.05268 3.75979 3.14645 3.85355C3.24021 3.94732 3.36739 4 3.5 4H7.295L3.145 8.15C3.05339 8.24346 3.00207 8.36912 3.00207 8.5C3.00207 8.63088 3.05339 8.75654 3.145 8.85C3.19148 8.89686 3.24678 8.93406 3.30771 8.95945C3.36864 8.98483 3.43399 8.9979 3.5 8.9979C3.56601 8.9979 3.63136 8.98483 3.69229 8.95945C3.75322 8.93406 3.80852 8.89686 3.855 8.85L8 4.71V8.5C8 8.63261 8.05268 8.75979 8.14645 8.85355C8.24021 8.94732 8.36739 9 8.5 9C8.63261 9 8.75979 8.94732 8.85355 8.85355C8.94732 8.75979 9 8.63261 9 8.5V3.5L8.985 3.415L8.97 3.345L8.96 3.31C8.9362 3.24862 8.90052 3.19255 8.855 3.145C8.80745 3.09948 8.75138 3.0638 8.69 3.04C8.62989 3.01438 8.56534 3.00079 8.5 3H3.5Z" fill="white"/>
</svg>
